<svg xmlns="http://www.w3.org/2000/svg" xmlns:xlink="http://www.w3.org/1999/xlink" width="120" zoomAndPan="magnify" viewBox="0 0 90 60" height="80" preserveAspectRatio="xMidYMid meet" version="1.0"><defs><g/><clipPath id="01aeb24b96"><path d="M 22.96875 14 L 46 14 L 46 34.480469 L 22.96875 34.480469 Z M 22.96875 14 " clip-rule="nonzero"/></clipPath><clipPath id="0f4cf751e5"><path d="M 45 4.480469 L 67.21875 4.480469 L 67.21875 25 L 45 25 Z M 45 4.480469 " clip-rule="nonzero"/></clipPath></defs><g clip-path="url(#01aeb24b96)"><path fill="#0652e9" d="M 37.867188 28.734375 L 37.867188 31.453125 L 25.667969 25.738281 L 25.667969 23.535156 L 37.867188 17.820312 L 37.867188 20.535156 L 28.640625 24.609375 L 28.640625 24.660156 Z M 45.109375 14.800781 L 24.710938 14.800781 C 23.75 14.800781 22.96875 15.589844 22.96875 16.558594 L 22.96875 32.710938 C 22.96875 33.683594 23.75 34.46875 24.710938 34.46875 L 39.449219 34.46875 L 45.109375 14.800781 " fill-opacity="1" fill-rule="nonzero"/></g><g clip-path="url(#0f4cf751e5)"><path fill="#38b6ff" d="M 64.519531 15.5 L 52.320312 21.136719 L 52.320312 18.421875 L 61.75 14.347656 L 61.75 14.296875 L 52.320312 10.222656 L 52.320312 7.503906 L 64.519531 13.144531 Z M 50.773438 4.488281 L 45.109375 24.15625 L 65.476562 24.15625 C 66.4375 24.15625 67.21875 23.367188 67.21875 22.398438 L 67.21875 6.246094 C 67.21875 5.273438 66.4375 4.488281 65.476562 4.488281 L 50.773438 4.488281 " fill-opacity="1" fill-rule="nonzero"/></g><g fill="#000000" fill-opacity="1"><g transform="translate(4.072535, 45.924295)"><g><path d="M 2.757812 0.0898438 C 4.027344 0.0898438 5.101562 -0.65625 5.101562 -1.921875 C 5.101562 -4.433594 1.980469 -3.8125 1.980469 -4.988281 C 1.980469 -5.371094 2.273438 -5.550781 2.632812 -5.550781 C 3.019531 -5.550781 3.402344 -5.335938 3.742188 -4.964844 L 4.738281 -5.914062 C 4.242188 -6.492188 3.484375 -6.875 2.644531 -6.875 C 1.570312 -6.875 0.476562 -6.230469 0.476562 -4.875 C 0.476562 -2.566406 3.605469 -3.121094 3.605469 -1.933594 C 3.605469 -1.558594 3.289062 -1.3125 2.769531 -1.3125 C 2.148438 -1.3125 1.664062 -1.664062 1.414062 -2.195312 L 0.179688 -1.425781 C 0.621094 -0.578125 1.570312 0.0898438 2.757812 0.0898438 Z M 2.757812 0.0898438 "/></g></g></g><g fill="#000000" fill-opacity="1"><g transform="translate(9.830209, 45.924295)"><g><path d="M 3.449219 0.0898438 C 5.054688 0.0898438 6.277344 -0.894531 6.277344 -2.171875 L 6.277344 -6.785156 L 4.78125 -6.785156 L 4.78125 -2.453125 C 4.78125 -1.765625 4.207031 -1.234375 3.449219 -1.234375 C 2.703125 -1.234375 2.125 -1.765625 2.125 -2.453125 L 2.125 -6.785156 L 0.632812 -6.785156 L 0.632812 -2.171875 C 0.632812 -0.894531 1.867188 0.0898438 3.449219 0.0898438 Z M 3.449219 0.0898438 "/></g></g></g><g fill="#000000" fill-opacity="1"><g transform="translate(17.136965, 45.924295)"><g><path d="M 4.578125 -6.785156 L 0.859375 -6.785156 L 0.859375 -5.460938 L 3.085938 -5.460938 L 3.085938 -1.933594 C 3.085938 -1.527344 2.792969 -1.222656 2.417969 -1.222656 C 2.082031 -1.222656 1.820312 -1.46875 1.765625 -1.820312 L 0.292969 -1.390625 C 0.441406 -0.476562 1.175781 0.0898438 2.417969 0.0898438 C 3.8125 0.0898438 4.578125 -0.621094 4.578125 -1.742188 Z M 4.578125 -6.785156 "/></g></g></g><g fill="#000000" fill-opacity="1"><g transform="translate(22.679801, 45.924295)"><g><path d="M 3.902344 0.0898438 C 5.835938 0.0898438 7.382812 -1.46875 7.382812 -3.390625 C 7.382812 -5.316406 5.835938 -6.875 3.902344 -6.875 C 1.980469 -6.875 0.417969 -5.316406 0.417969 -3.390625 C 0.417969 -1.46875 1.980469 0.0898438 3.902344 0.0898438 Z M 3.902344 -1.367188 C 2.757812 -1.367188 1.886719 -2.25 1.886719 -3.390625 C 1.886719 -4.535156 2.757812 -5.417969 3.902344 -5.417969 C 5.054688 -5.417969 5.925781 -4.535156 5.925781 -3.390625 C 5.925781 -2.25 5.054688 -1.367188 3.902344 -1.367188 Z M 3.902344 -1.367188 "/></g></g></g><g fill="#000000" fill-opacity="1"><g transform="translate(30.891131, 45.924295)"><g><path d="M 5.539062 -6.785156 L 5.539062 -2.296875 L 2.203125 -6.785156 L 0.667969 -6.785156 L 0.667969 0 L 2.160156 0 L 2.160156 -4.5 L 5.484375 0 L 7.023438 0 L 7.023438 -6.785156 Z M 5.539062 -6.785156 "/></g></g></g><g fill="#000000" fill-opacity="1"><g transform="translate(38.989392, 45.924295)"><g/></g></g><g fill="#000000" fill-opacity="1"><g transform="translate(42.101186, 45.924295)"><g><path d="M 6.582031 -6.785156 L 4.421875 -2.09375 L 2.285156 -6.785156 L 0.667969 -6.785156 L 0.667969 0 L 2.160156 0 L 2.160156 -4.046875 L 3.992188 0 L 4.851562 0 L 6.695312 -4.035156 L 6.695312 0 L 8.1875 0 L 8.1875 -6.785156 Z M 6.582031 -6.785156 "/></g></g></g><g fill="#000000" fill-opacity="1"><g transform="translate(51.352779, 45.924295)"><g><path d="M 4.816406 0 L 6.410156 0 L 3.96875 -6.785156 L 2.296875 -6.785156 L -0.148438 0 L 1.449219 0 L 1.867188 -1.277344 L 4.398438 -1.277344 Z M 2.261719 -2.523438 L 3.132812 -5.210938 L 4.003906 -2.523438 Z M 2.261719 -2.523438 "/></g></g></g><g fill="#000000" fill-opacity="1"><g transform="translate(58.015029, 45.924295)"><g><path d="M 0.667969 0 L 2.90625 0 C 4.773438 0 6.296875 -1.515625 6.296875 -3.390625 C 6.296875 -5.269531 4.773438 -6.785156 2.90625 -6.785156 L 0.667969 -6.785156 Z M 2.160156 -1.324219 L 2.160156 -5.460938 L 2.894531 -5.460938 C 3.96875 -5.460938 4.804688 -4.566406 4.804688 -3.390625 C 4.804688 -2.214844 3.96875 -1.324219 2.894531 -1.324219 Z M 2.160156 -1.324219 "/></g></g></g><g fill="#000000" fill-opacity="1"><g transform="translate(65.129567, 45.924295)"><g><path d="M 4.75 -3.4375 C 5.257812 -3.707031 5.585938 -4.183594 5.585938 -4.894531 C 5.585938 -6.09375 4.679688 -6.785156 3.539062 -6.785156 L 0.667969 -6.785156 L 0.667969 0 L 3.800781 0 C 4.929688 0 5.8125 -0.65625 5.8125 -1.855469 C 5.8125 -2.679688 5.382812 -3.1875 4.75 -3.4375 Z M 4.09375 -4.738281 C 4.09375 -4.34375 3.765625 -4.003906 3.359375 -4.003906 L 2.160156 -4.003906 L 2.160156 -5.460938 L 3.359375 -5.460938 C 3.765625 -5.460938 4.09375 -5.144531 4.09375 -4.738281 Z M 3.585938 -1.324219 L 2.160156 -1.324219 L 2.160156 -2.78125 L 3.585938 -2.78125 C 4.003906 -2.78125 4.320312 -2.441406 4.320312 -2.046875 C 4.320312 -1.640625 4.003906 -1.324219 3.585938 -1.324219 Z M 3.585938 -1.324219 "/></g></g></g><g fill="#000000" fill-opacity="1"><g transform="translate(71.667438, 45.924295)"><g><path d="M 3.902344 0.0898438 C 5.835938 0.0898438 7.382812 -1.46875 7.382812 -3.390625 C 7.382812 -5.316406 5.835938 -6.875 3.902344 -6.875 C 1.980469 -6.875 0.417969 -5.316406 0.417969 -3.390625 C 0.417969 -1.46875 1.980469 0.0898438 3.902344 0.0898438 Z M 3.902344 -1.367188 C 2.757812 -1.367188 1.886719 -2.25 1.886719 -3.390625 C 1.886719 -4.535156 2.757812 -5.417969 3.902344 -5.417969 C 5.054688 -5.417969 5.925781 -4.535156 5.925781 -3.390625 C 5.925781 -2.25 5.054688 -1.367188 3.902344 -1.367188 Z M 3.902344 -1.367188 "/></g></g></g><g fill="#000000" fill-opacity="1"><g transform="translate(79.878767, 45.924295)"><g><path d="M 4.207031 -2.792969 C 5.007812 -3.03125 5.574219 -3.777344 5.574219 -4.703125 C 5.574219 -5.855469 4.714844 -6.785156 3.550781 -6.785156 L 0.667969 -6.785156 L 0.667969 0 L 2.160156 0 L 2.160156 -2.625 L 2.757812 -2.625 L 4.433594 0 L 6.105469 0 Z M 3.324219 -3.855469 L 2.160156 -3.855469 L 2.160156 -5.460938 L 3.324219 -5.460938 C 3.800781 -5.460938 4.148438 -5.121094 4.148438 -4.660156 C 4.148438 -4.183594 3.800781 -3.855469 3.324219 -3.855469 Z M 3.324219 -3.855469 "/></g></g></g><g fill="#000000" fill-opacity="1"><g transform="translate(21.247226, 54.452396)"><g><path d="M 3.628906 -2.90625 L 2.882812 -0.519531 L 2.175781 -2.90625 L 1.738281 -2.90625 L 1.042969 -0.523438 L 0.300781 -2.90625 L -0.0273438 -2.90625 L 0.882812 0 L 1.210938 0 L 1.957031 -2.578125 L 2.71875 0 L 3.042969 0 L 3.949219 -2.90625 Z M 3.628906 -2.90625 "/></g></g></g><g fill="#000000" fill-opacity="1"><g transform="translate(26.46704, 54.452396)"><g><path d="M 1.96875 -2.609375 L 1.96875 -2.90625 L 0.378906 -2.90625 L 0.378906 0 L 1.96875 0 L 1.96875 -0.300781 L 0.6875 -0.300781 L 0.6875 -1.304688 L 1.804688 -1.304688 L 1.804688 -1.605469 L 0.6875 -1.605469 L 0.6875 -2.609375 Z M 1.96875 -2.609375 "/></g></g></g><g fill="#000000" fill-opacity="1"><g transform="translate(30.024471, 54.452396)"><g><path d="M 1.789062 -1.472656 C 2.046875 -1.589844 2.214844 -1.824219 2.214844 -2.132812 C 2.214844 -2.589844 1.855469 -2.90625 1.410156 -2.90625 L 0.355469 -2.90625 L 0.355469 0 L 1.511719 0 C 1.953125 0 2.308594 -0.316406 2.308594 -0.765625 C 2.308594 -1.121094 2.09375 -1.371094 1.789062 -1.472656 Z M 1.90625 -2.109375 C 1.90625 -1.824219 1.667969 -1.605469 1.375 -1.605469 L 0.660156 -1.605469 L 0.660156 -2.597656 L 1.375 -2.597656 C 1.667969 -2.597656 1.90625 -2.394531 1.90625 -2.109375 Z M 1.472656 -0.308594 L 0.660156 -0.308594 L 0.660156 -1.304688 L 1.472656 -1.304688 C 1.757812 -1.304688 1.996094 -1.085938 1.996094 -0.800781 C 1.996094 -0.515625 1.757812 -0.308594 1.472656 -0.308594 Z M 1.472656 -0.308594 "/></g></g></g><g fill="#000000" fill-opacity="1"><g transform="translate(33.858159, 54.452396)"><g/></g></g><g fill="#000000" fill-opacity="1"><g transform="translate(36.325104, 54.452396)"><g><path d="M 0.355469 0 L 1.148438 0 C 1.949219 0 2.601562 -0.648438 2.601562 -1.453125 C 2.601562 -2.257812 1.949219 -2.90625 1.148438 -2.90625 L 0.355469 -2.90625 Z M 0.660156 -0.308594 L 0.660156 -2.597656 L 1.144531 -2.597656 C 1.789062 -2.597656 2.292969 -2.109375 2.292969 -1.453125 C 2.292969 -0.800781 1.789062 -0.308594 1.144531 -0.308594 Z M 0.660156 -0.308594 "/></g></g></g><g fill="#000000" fill-opacity="1"><g transform="translate(40.464127, 54.452396)"><g><path d="M 1.96875 -2.609375 L 1.96875 -2.90625 L 0.378906 -2.90625 L 0.378906 0 L 1.96875 0 L 1.96875 -0.300781 L 0.6875 -0.300781 L 0.6875 -1.304688 L 1.804688 -1.304688 L 1.804688 -1.605469 L 0.6875 -1.605469 L 0.6875 -2.609375 Z M 1.96875 -2.609375 "/></g></g></g><g fill="#000000" fill-opacity="1"><g transform="translate(44.021558, 54.452396)"><g><path d="M 2.109375 -2.90625 L 1.226562 -0.398438 L 0.34375 -2.90625 L 0 -2.90625 L 1.050781 0 L 1.394531 0 L 2.449219 -2.90625 Z M 2.109375 -2.90625 "/></g></g></g><g fill="#000000" fill-opacity="1"><g transform="translate(47.768007, 54.452396)"><g><path d="M 1.96875 -2.609375 L 1.96875 -2.90625 L 0.378906 -2.90625 L 0.378906 0 L 1.96875 0 L 1.96875 -0.300781 L 0.6875 -0.300781 L 0.6875 -1.304688 L 1.804688 -1.304688 L 1.804688 -1.605469 L 0.6875 -1.605469 L 0.6875 -2.609375 Z M 1.96875 -2.609375 "/></g></g></g><g fill="#000000" fill-opacity="1"><g transform="translate(51.325438, 54.452396)"><g><path d="M 0.664062 -0.308594 L 0.664062 -2.90625 L 0.355469 -2.90625 L 0.355469 0 L 1.746094 0 L 1.746094 -0.308594 Z M 0.664062 -0.308594 "/></g></g></g><g fill="#000000" fill-opacity="1"><g transform="translate(54.41275, 54.452396)"><g><path d="M 1.730469 0.0390625 C 2.558594 0.0390625 3.222656 -0.628906 3.222656 -1.453125 C 3.222656 -2.277344 2.558594 -2.945312 1.730469 -2.945312 C 0.90625 -2.945312 0.238281 -2.277344 0.238281 -1.453125 C 0.238281 -0.628906 0.90625 0.0390625 1.730469 0.0390625 Z M 1.730469 -0.269531 C 1.074219 -0.269531 0.546875 -0.792969 0.546875 -1.453125 C 0.546875 -2.113281 1.074219 -2.636719 1.730469 -2.636719 C 2.390625 -2.636719 2.914062 -2.113281 2.914062 -1.453125 C 2.914062 -0.792969 2.390625 -0.269531 1.730469 -0.269531 Z M 1.730469 -0.269531 "/></g></g></g><g fill="#000000" fill-opacity="1"><g transform="translate(59.176987, 54.452396)"><g><path d="M 1.394531 -2.90625 L 0.355469 -2.90625 L 0.355469 0 L 0.664062 0 L 0.664062 -1.292969 L 1.394531 -1.292969 C 1.847656 -1.292969 2.207031 -1.648438 2.207031 -2.097656 C 2.207031 -2.542969 1.847656 -2.90625 1.394531 -2.90625 Z M 1.367188 -1.589844 L 0.664062 -1.589844 L 0.664062 -2.609375 L 1.367188 -2.609375 C 1.65625 -2.609375 1.894531 -2.402344 1.894531 -2.09375 C 1.894531 -1.773438 1.65625 -1.589844 1.367188 -1.589844 Z M 1.367188 -1.589844 "/></g></g></g><g fill="#000000" fill-opacity="1"><g transform="translate(62.763495, 54.452396)"><g><path d="M 1.96875 -2.609375 L 1.96875 -2.90625 L 0.378906 -2.90625 L 0.378906 0 L 1.96875 0 L 1.96875 -0.300781 L 0.6875 -0.300781 L 0.6875 -1.304688 L 1.804688 -1.304688 L 1.804688 -1.605469 L 0.6875 -1.605469 L 0.6875 -2.609375 Z M 1.96875 -2.609375 "/></g></g></g><g fill="#000000" fill-opacity="1"><g transform="translate(66.320925, 54.452396)"><g><path d="M 1.53125 -1.328125 C 1.914062 -1.382812 2.207031 -1.699219 2.207031 -2.09375 C 2.207031 -2.550781 1.839844 -2.90625 1.394531 -2.90625 L 0.355469 -2.90625 L 0.355469 0 L 0.664062 0 L 0.664062 -1.3125 L 1.210938 -1.3125 L 2.035156 0 L 2.390625 0 Z M 0.664062 -1.609375 L 0.664062 -2.597656 L 1.375 -2.597656 C 1.667969 -2.597656 1.894531 -2.394531 1.894531 -2.101562 C 1.894531 -1.808594 1.671875 -1.609375 1.375 -1.609375 Z M 0.664062 -1.609375 "/></g></g></g></svg>